<svg xmlns="http://www.w3.org/2000/svg" xmlns:xlink="http://www.w3.org/1999/xlink" width="500" zoomAndPan="magnify" viewBox="0 0 375 374.999991" height="500" preserveAspectRatio="xMidYMid meet" version="1.0"><defs><clipPath id="0c014af221"><path d="M 5.441406 5.441406 L 369.191406 5.441406 L 369.191406 369.191406 L 5.441406 369.191406 Z M 5.441406 5.441406 " clip-rule="nonzero"/></clipPath><clipPath id="b523c5f115"><path d="M 113 57.28125 L 171 57.28125 L 171 114 L 113 114 Z M 113 57.28125 " clip-rule="nonzero"/></clipPath><clipPath id="470023110d"><path d="M 203 57.28125 L 260 57.28125 L 260 114 L 203 114 Z M 203 57.28125 " clip-rule="nonzero"/></clipPath><clipPath id="825cef070f"><path d="M 136 232 L 239 232 L 239 317.53125 L 136 317.53125 Z M 136 232 " clip-rule="nonzero"/></clipPath><clipPath id="9001339978"><path d="M 45.957031 198 L 147 198 L 147 284 L 45.957031 284 Z M 45.957031 198 " clip-rule="nonzero"/></clipPath><clipPath id="5e431de4f0"><path d="M 228 198 L 328.707031 198 L 328.707031 284 L 228 284 Z M 228 198 " clip-rule="nonzero"/></clipPath></defs><rect x="-37.5" width="450" fill="#ffffff" y="-37.499999" height="449.999989" fill-opacity="1"/><rect x="-37.5" width="450" fill="#ffffff" y="-37.499999" height="449.999989" fill-opacity="1"/><rect x="-37.5" width="450" fill="#ffffff" y="-37.499999" height="449.999989" fill-opacity="1"/><g clip-path="url(#0c014af221)"><path fill="#122052" d="M 369.191406 187.316406 C 369.191406 190.292969 369.117188 193.269531 368.972656 196.242188 C 368.828125 199.214844 368.609375 202.179688 368.316406 205.144531 C 368.023438 208.105469 367.660156 211.058594 367.222656 214.003906 C 366.785156 216.949219 366.277344 219.878906 365.695312 222.796875 C 365.117188 225.71875 364.464844 228.621094 363.742188 231.507812 C 363.019531 234.394531 362.222656 237.265625 361.359375 240.113281 C 360.496094 242.960938 359.5625 245.785156 358.558594 248.589844 C 357.558594 251.390625 356.484375 254.167969 355.347656 256.917969 C 354.207031 259.667969 353.003906 262.386719 351.730469 265.078125 C 350.457031 267.769531 349.117188 270.425781 347.714844 273.050781 C 346.3125 275.675781 344.847656 278.265625 343.316406 280.820312 C 341.785156 283.371094 340.195312 285.886719 338.539062 288.359375 C 336.886719 290.835938 335.171875 293.269531 333.398438 295.660156 C 331.625 298.050781 329.796875 300.394531 327.90625 302.695312 C 326.019531 304.996094 324.074219 307.25 322.078125 309.457031 C 320.078125 311.660156 318.027344 313.816406 315.921875 315.921875 C 313.816406 318.027344 311.660156 320.078125 309.457031 322.078125 C 307.25 324.074219 304.996094 326.019531 302.695312 327.90625 C 300.394531 329.796875 298.050781 331.625 295.660156 333.398438 C 293.269531 335.171875 290.835938 336.886719 288.359375 338.539062 C 285.886719 340.195312 283.371094 341.785156 280.820312 343.316406 C 278.265625 344.847656 275.675781 346.3125 273.050781 347.714844 C 270.425781 349.117188 267.769531 350.457031 265.078125 351.730469 C 262.386719 353.003906 259.667969 354.207031 256.917969 355.347656 C 254.167969 356.484375 251.390625 357.558594 248.589844 358.558594 C 245.785156 359.5625 242.960938 360.496094 240.113281 361.359375 C 237.265625 362.222656 234.394531 363.019531 231.507812 363.742188 C 228.621094 364.464844 225.71875 365.117188 222.796875 365.695312 C 219.878906 366.277344 216.949219 366.785156 214.003906 367.222656 C 211.058594 367.660156 208.105469 368.023438 205.144531 368.316406 C 202.179688 368.609375 199.214844 368.828125 196.242188 368.972656 C 193.269531 369.117188 190.292969 369.191406 187.316406 369.191406 C 184.339844 369.191406 181.367188 369.117188 178.390625 368.972656 C 175.417969 368.828125 172.453125 368.609375 169.488281 368.316406 C 166.527344 368.023438 163.574219 367.660156 160.628906 367.222656 C 157.6875 366.785156 154.753906 366.277344 151.835938 365.695312 C 148.914062 365.117188 146.011719 364.464844 143.125 363.742188 C 140.238281 363.019531 137.371094 362.222656 134.519531 361.359375 C 131.671875 360.496094 128.847656 359.5625 126.042969 358.558594 C 123.242188 357.558594 120.464844 356.484375 117.714844 355.347656 C 114.964844 354.207031 112.246094 353.003906 109.554688 351.730469 C 106.863281 350.457031 104.207031 349.117188 101.582031 347.714844 C 98.957031 346.3125 96.367188 344.847656 93.8125 343.316406 C 91.261719 341.785156 88.746094 340.195312 86.273438 338.539062 C 83.796875 336.886719 81.363281 335.171875 78.972656 333.398438 C 76.582031 331.625 74.238281 329.796875 71.9375 327.90625 C 69.636719 326.019531 67.382812 324.074219 65.175781 322.078125 C 62.972656 320.078125 60.816406 318.027344 58.710938 315.921875 C 56.605469 313.816406 54.554688 311.660156 52.554688 309.457031 C 50.558594 307.25 48.613281 304.996094 46.726562 302.695312 C 44.835938 300.394531 43.007812 298.050781 41.234375 295.660156 C 39.460938 293.269531 37.746094 290.835938 36.09375 288.359375 C 34.4375 285.886719 32.847656 283.371094 31.316406 280.820312 C 29.785156 278.265625 28.320312 275.675781 26.917969 273.050781 C 25.515625 270.425781 24.175781 267.769531 22.902344 265.078125 C 21.632812 262.386719 20.425781 259.667969 19.285156 256.917969 C 18.148438 254.167969 17.074219 251.390625 16.074219 248.589844 C 15.070312 245.785156 14.136719 242.960938 13.273438 240.113281 C 12.410156 237.265625 11.617188 234.394531 10.890625 231.507812 C 10.167969 228.621094 9.515625 225.71875 8.9375 222.796875 C 8.355469 219.878906 7.847656 216.949219 7.410156 214.003906 C 6.972656 211.058594 6.609375 208.105469 6.316406 205.144531 C 6.027344 202.179688 5.808594 199.214844 5.660156 196.242188 C 5.515625 193.269531 5.441406 190.292969 5.441406 187.316406 C 5.441406 184.339844 5.515625 181.367188 5.660156 178.390625 C 5.808594 175.417969 6.027344 172.453125 6.316406 169.488281 C 6.609375 166.527344 6.972656 163.574219 7.410156 160.628906 C 7.847656 157.6875 8.355469 154.753906 8.9375 151.835938 C 9.515625 148.914062 10.167969 146.011719 10.890625 143.125 C 11.617188 140.238281 12.410156 137.371094 13.273438 134.519531 C 14.136719 131.671875 15.070312 128.847656 16.074219 126.042969 C 17.074219 123.242188 18.148438 120.464844 19.285156 117.714844 C 20.425781 114.964844 21.632812 112.246094 22.902344 109.554688 C 24.175781 106.863281 25.515625 104.207031 26.917969 101.582031 C 28.320312 98.957031 29.785156 96.367188 31.316406 93.8125 C 32.847656 91.261719 34.4375 88.746094 36.09375 86.273438 C 37.746094 83.796875 39.460938 81.363281 41.234375 78.972656 C 43.007812 76.582031 44.835938 74.238281 46.726562 71.9375 C 48.613281 69.636719 50.558594 67.382812 52.554688 65.175781 C 54.554688 62.972656 56.605469 60.816406 58.710938 58.710938 C 60.816406 56.605469 62.972656 54.554688 65.175781 52.554688 C 67.382812 50.558594 69.636719 48.613281 71.9375 46.726562 C 74.238281 44.835938 76.582031 43.007812 78.972656 41.234375 C 81.363281 39.460938 83.796875 37.746094 86.273438 36.09375 C 88.746094 34.4375 91.261719 32.847656 93.8125 31.316406 C 96.367188 29.785156 98.957031 28.320312 101.582031 26.917969 C 104.207031 25.515625 106.863281 24.175781 109.554688 22.902344 C 112.246094 21.632812 114.964844 20.425781 117.714844 19.285156 C 120.464844 18.148438 123.242188 17.074219 126.042969 16.074219 C 128.847656 15.070312 131.671875 14.136719 134.519531 13.273438 C 137.371094 12.410156 140.238281 11.617188 143.125 10.890625 C 146.011719 10.167969 148.914062 9.515625 151.835938 8.9375 C 154.753906 8.355469 157.6875 7.847656 160.628906 7.410156 C 163.574219 6.972656 166.527344 6.609375 169.488281 6.316406 C 172.453125 6.027344 175.417969 5.808594 178.390625 5.660156 C 181.367188 5.515625 184.339844 5.441406 187.316406 5.441406 C 190.292969 5.441406 193.269531 5.515625 196.242188 5.660156 C 199.214844 5.808594 202.179688 6.027344 205.144531 6.316406 C 208.105469 6.609375 211.058594 6.972656 214.003906 7.410156 C 216.949219 7.847656 219.878906 8.355469 222.796875 8.9375 C 225.71875 9.515625 228.621094 10.167969 231.507812 10.890625 C 234.394531 11.617188 237.265625 12.410156 240.113281 13.273438 C 242.960938 14.136719 245.785156 15.070312 248.589844 16.074219 C 251.390625 17.074219 254.167969 18.148438 256.917969 19.285156 C 259.667969 20.425781 262.386719 21.632812 265.078125 22.902344 C 267.769531 24.175781 270.425781 25.515625 273.050781 26.917969 C 275.675781 28.320312 278.265625 29.785156 280.820312 31.316406 C 283.371094 32.847656 285.886719 34.4375 288.359375 36.09375 C 290.835938 37.746094 293.269531 39.460938 295.660156 41.234375 C 298.050781 43.007812 300.394531 44.835938 302.695312 46.726562 C 304.996094 48.613281 307.25 50.558594 309.457031 52.554688 C 311.660156 54.554688 313.816406 56.605469 315.921875 58.710938 C 318.027344 60.816406 320.078125 62.972656 322.078125 65.175781 C 324.074219 67.382812 326.019531 69.636719 327.90625 71.9375 C 329.796875 74.238281 331.625 76.582031 333.398438 78.972656 C 335.171875 81.363281 336.886719 83.796875 338.539062 86.273438 C 340.195312 88.746094 341.785156 91.261719 343.316406 93.8125 C 344.847656 96.367188 346.3125 98.957031 347.714844 101.582031 C 349.117188 104.207031 350.457031 106.863281 351.730469 109.554688 C 353.003906 112.246094 354.207031 114.964844 355.347656 117.714844 C 356.484375 120.464844 357.558594 123.242188 358.558594 126.042969 C 359.5625 128.847656 360.496094 131.671875 361.359375 134.519531 C 362.222656 137.371094 363.019531 140.238281 363.742188 143.125 C 364.464844 146.011719 365.117188 148.914062 365.695312 151.835938 C 366.277344 154.753906 366.785156 157.6875 367.222656 160.628906 C 367.660156 163.574219 368.023438 166.527344 368.316406 169.488281 C 368.609375 172.453125 368.828125 175.417969 368.972656 178.390625 C 369.117188 181.367188 369.191406 184.339844 369.191406 187.316406 Z M 369.191406 187.316406 " fill-opacity="1" fill-rule="nonzero"/></g><g clip-path="url(#b523c5f115)"><path fill="#ffffff" d="M 170.367188 85.570312 C 170.367188 86.496094 170.324219 87.421875 170.234375 88.34375 C 170.140625 89.265625 170.007812 90.179688 169.824219 91.089844 C 169.644531 91.996094 169.417969 92.894531 169.152344 93.78125 C 168.882812 94.667969 168.570312 95.539062 168.214844 96.394531 C 167.863281 97.25 167.464844 98.085938 167.03125 98.90625 C 166.59375 99.722656 166.117188 100.515625 165.601562 101.285156 C 165.089844 102.054688 164.539062 102.800781 163.949219 103.515625 C 163.363281 104.230469 162.742188 104.917969 162.085938 105.570312 C 161.433594 106.226562 160.746094 106.847656 160.03125 107.4375 C 159.316406 108.023438 158.574219 108.574219 157.800781 109.089844 C 157.03125 109.605469 156.238281 110.082031 155.421875 110.515625 C 154.605469 110.953125 153.769531 111.351562 152.914062 111.703125 C 152.058594 112.058594 151.1875 112.371094 150.300781 112.640625 C 149.414062 112.910156 148.519531 113.132812 147.609375 113.3125 C 146.703125 113.496094 145.789062 113.628906 144.867188 113.722656 C 143.945312 113.8125 143.019531 113.859375 142.09375 113.859375 C 141.167969 113.859375 140.246094 113.8125 139.324219 113.722656 C 138.402344 113.628906 137.488281 113.496094 136.578125 113.3125 C 135.671875 113.132812 134.773438 112.910156 133.886719 112.640625 C 133 112.371094 132.128906 112.058594 131.273438 111.703125 C 130.417969 111.351562 129.582031 110.953125 128.765625 110.515625 C 127.949219 110.082031 127.15625 109.605469 126.386719 109.089844 C 125.617188 108.574219 124.871094 108.023438 124.15625 107.4375 C 123.441406 106.847656 122.757812 106.226562 122.101562 105.570312 C 121.445312 104.917969 120.824219 104.230469 120.238281 103.515625 C 119.652344 102.800781 119.097656 102.054688 118.585938 101.285156 C 118.070312 100.515625 117.59375 99.722656 117.160156 98.90625 C 116.722656 98.085938 116.328125 97.25 115.972656 96.394531 C 115.617188 95.539062 115.304688 94.667969 115.039062 93.78125 C 114.769531 92.894531 114.542969 91.996094 114.363281 91.089844 C 114.183594 90.179688 114.046875 89.265625 113.957031 88.34375 C 113.867188 87.421875 113.820312 86.496094 113.820312 85.570312 C 113.820312 84.644531 113.867188 83.71875 113.957031 82.796875 C 114.046875 81.875 114.183594 80.960938 114.363281 80.050781 C 114.542969 79.140625 114.769531 78.246094 115.039062 77.359375 C 115.304688 76.472656 115.617188 75.601562 115.972656 74.746094 C 116.328125 73.886719 116.722656 73.050781 117.160156 72.234375 C 117.59375 71.417969 118.070312 70.625 118.585938 69.855469 C 119.097656 69.082031 119.652344 68.339844 120.238281 67.625 C 120.824219 66.90625 121.445312 66.222656 122.101562 65.566406 C 122.757812 64.910156 123.441406 64.289062 124.15625 63.703125 C 124.871094 63.113281 125.617188 62.5625 126.386719 62.050781 C 127.15625 61.535156 127.949219 61.058594 128.765625 60.621094 C 129.582031 60.183594 130.417969 59.789062 131.273438 59.433594 C 132.128906 59.082031 133 58.769531 133.886719 58.5 C 134.773438 58.230469 135.671875 58.003906 136.578125 57.824219 C 137.488281 57.644531 138.402344 57.507812 139.324219 57.417969 C 140.246094 57.328125 141.167969 57.28125 142.09375 57.28125 C 143.019531 57.28125 143.945312 57.328125 144.867188 57.417969 C 145.789062 57.507812 146.703125 57.644531 147.609375 57.824219 C 148.519531 58.003906 149.414062 58.230469 150.300781 58.5 C 151.1875 58.769531 152.058594 59.082031 152.914062 59.433594 C 153.769531 59.789062 154.605469 60.183594 155.421875 60.621094 C 156.238281 61.058594 157.03125 61.535156 157.800781 62.050781 C 158.574219 62.5625 159.316406 63.113281 160.03125 63.703125 C 160.746094 64.289062 161.433594 64.910156 162.085938 65.566406 C 162.742188 66.222656 163.363281 66.90625 163.949219 67.625 C 164.539062 68.339844 165.089844 69.082031 165.601562 69.855469 C 166.117188 70.625 166.59375 71.417969 167.03125 72.234375 C 167.464844 73.050781 167.863281 73.886719 168.214844 74.746094 C 168.570312 75.601562 168.882812 76.472656 169.152344 77.359375 C 169.417969 78.246094 169.644531 79.140625 169.824219 80.050781 C 170.007812 80.960938 170.140625 81.875 170.234375 82.796875 C 170.324219 83.71875 170.367188 84.644531 170.367188 85.570312 Z M 170.367188 85.570312 " fill-opacity="1" fill-rule="nonzero"/></g><g clip-path="url(#470023110d)"><path fill="#ffffff" d="M 259.714844 85.570312 C 259.714844 86.496094 259.671875 87.421875 259.578125 88.34375 C 259.488281 89.265625 259.351562 90.179688 259.171875 91.089844 C 258.992188 91.996094 258.765625 92.894531 258.496094 93.78125 C 258.230469 94.667969 257.917969 95.539062 257.5625 96.394531 C 257.207031 97.25 256.8125 98.085938 256.375 98.90625 C 255.941406 99.722656 255.464844 100.515625 254.949219 101.285156 C 254.4375 102.054688 253.886719 102.800781 253.296875 103.515625 C 252.710938 104.230469 252.089844 104.917969 251.433594 105.570312 C 250.78125 106.226562 250.09375 106.847656 249.378906 107.4375 C 248.664062 108.023438 247.917969 108.574219 247.148438 109.089844 C 246.378906 109.605469 245.585938 110.082031 244.769531 110.515625 C 243.953125 110.953125 243.117188 111.351562 242.261719 111.703125 C 241.40625 112.058594 240.535156 112.371094 239.648438 112.640625 C 238.761719 112.910156 237.867188 113.132812 236.957031 113.3125 C 236.050781 113.496094 235.132812 113.628906 234.210938 113.722656 C 233.289062 113.8125 232.367188 113.859375 231.441406 113.859375 C 230.515625 113.859375 229.589844 113.8125 228.667969 113.722656 C 227.75 113.628906 226.832031 113.496094 225.925781 113.3125 C 225.015625 113.132812 224.121094 112.910156 223.234375 112.640625 C 222.347656 112.371094 221.476562 112.058594 220.621094 111.703125 C 219.765625 111.351562 218.929688 110.953125 218.113281 110.515625 C 217.296875 110.082031 216.503906 109.605469 215.734375 109.089844 C 214.960938 108.574219 214.21875 108.023438 213.503906 107.4375 C 212.789062 106.847656 212.101562 106.226562 211.449219 105.570312 C 210.792969 104.917969 210.171875 104.230469 209.585938 103.515625 C 208.996094 102.800781 208.445312 102.054688 207.933594 101.285156 C 207.417969 100.515625 206.941406 99.722656 206.503906 98.90625 C 206.070312 98.085938 205.671875 97.25 205.320312 96.394531 C 204.964844 95.539062 204.652344 94.667969 204.382812 93.78125 C 204.117188 92.894531 203.890625 91.996094 203.710938 91.089844 C 203.53125 90.179688 203.394531 89.265625 203.304688 88.34375 C 203.210938 87.421875 203.167969 86.496094 203.167969 85.570312 C 203.167969 84.644531 203.210938 83.71875 203.304688 82.796875 C 203.394531 81.875 203.53125 80.960938 203.710938 80.050781 C 203.890625 79.140625 204.117188 78.246094 204.382812 77.359375 C 204.652344 76.472656 204.964844 75.601562 205.320312 74.746094 C 205.671875 73.886719 206.070312 73.050781 206.503906 72.234375 C 206.941406 71.417969 207.417969 70.625 207.933594 69.855469 C 208.445312 69.082031 208.996094 68.339844 209.585938 67.625 C 210.171875 66.90625 210.792969 66.222656 211.449219 65.566406 C 212.101562 64.910156 212.789062 64.289062 213.503906 63.703125 C 214.21875 63.113281 214.960938 62.5625 215.734375 62.050781 C 216.503906 61.535156 217.296875 61.058594 218.113281 60.621094 C 218.929688 60.183594 219.765625 59.789062 220.621094 59.433594 C 221.476562 59.082031 222.347656 58.769531 223.234375 58.5 C 224.121094 58.230469 225.015625 58.003906 225.925781 57.824219 C 226.832031 57.644531 227.75 57.507812 228.667969 57.417969 C 229.589844 57.328125 230.515625 57.28125 231.441406 57.28125 C 232.367188 57.28125 233.289062 57.328125 234.210938 57.417969 C 235.132812 57.507812 236.050781 57.644531 236.957031 57.824219 C 237.867188 58.003906 238.761719 58.230469 239.648438 58.5 C 240.535156 58.769531 241.40625 59.082031 242.261719 59.433594 C 243.117188 59.789062 243.953125 60.183594 244.769531 60.621094 C 245.585938 61.058594 246.378906 61.535156 247.148438 62.050781 C 247.917969 62.5625 248.664062 63.113281 249.378906 63.703125 C 250.09375 64.289062 250.78125 64.910156 251.433594 65.566406 C 252.089844 66.222656 252.710938 66.90625 253.296875 67.625 C 253.886719 68.339844 254.4375 69.082031 254.949219 69.855469 C 255.464844 70.625 255.941406 71.417969 256.375 72.234375 C 256.8125 73.050781 257.207031 73.886719 257.5625 74.746094 C 257.917969 75.601562 258.230469 76.472656 258.496094 77.359375 C 258.765625 78.246094 258.992188 79.140625 259.171875 80.050781 C 259.351562 80.960938 259.488281 81.875 259.578125 82.796875 C 259.671875 83.71875 259.714844 84.644531 259.714844 85.570312 Z M 259.714844 85.570312 " fill-opacity="1" fill-rule="nonzero"/></g><path fill="#ffffff" d="M 221.414062 193.21875 C 221.414062 194.328125 221.359375 195.4375 221.25 196.542969 C 221.144531 197.652344 220.980469 198.75 220.761719 199.839844 C 220.546875 200.929688 220.277344 202.007812 219.953125 203.070312 C 219.632812 204.132812 219.257812 205.179688 218.832031 206.207031 C 218.40625 207.234375 217.933594 208.238281 217.410156 209.21875 C 216.886719 210.199219 216.3125 211.152344 215.695312 212.074219 C 215.078125 213 214.417969 213.890625 213.714844 214.75 C 213.007812 215.609375 212.261719 216.433594 211.476562 217.21875 C 210.691406 218.007812 209.871094 218.75 209.011719 219.457031 C 208.152344 220.164062 207.261719 220.824219 206.335938 221.441406 C 205.410156 222.058594 204.460938 222.628906 203.480469 223.152344 C 202.5 223.679688 201.496094 224.152344 200.46875 224.578125 C 199.445312 225.003906 198.398438 225.378906 197.335938 225.699219 C 196.273438 226.023438 195.195312 226.292969 194.105469 226.511719 C 193.015625 226.726562 191.917969 226.890625 190.8125 227 C 189.707031 227.109375 188.597656 227.164062 187.484375 227.164062 C 186.375 227.164062 185.265625 227.109375 184.160156 227 C 183.054688 226.890625 181.957031 226.726562 180.867188 226.511719 C 179.777344 226.292969 178.699219 226.023438 177.636719 225.699219 C 176.574219 225.378906 175.527344 225.003906 174.5 224.578125 C 173.476562 224.152344 172.472656 223.679688 171.492188 223.152344 C 170.511719 222.628906 169.558594 222.058594 168.636719 221.441406 C 167.710938 220.824219 166.820312 220.164062 165.960938 219.457031 C 165.101562 218.75 164.28125 218.007812 163.496094 217.21875 C 162.707031 216.433594 161.964844 215.609375 161.257812 214.75 C 160.554688 213.890625 159.890625 213 159.273438 212.074219 C 158.65625 211.152344 158.085938 210.199219 157.5625 209.21875 C 157.039062 208.238281 156.566406 207.234375 156.140625 206.207031 C 155.714844 205.179688 155.339844 204.132812 155.019531 203.070312 C 154.695312 202.007812 154.425781 200.929688 154.207031 199.839844 C 153.992188 198.75 153.828125 197.652344 153.71875 196.542969 C 153.609375 195.4375 153.558594 194.328125 153.558594 193.21875 C 153.558594 192.105469 153.609375 190.996094 153.71875 189.890625 C 153.828125 188.785156 153.992188 187.683594 154.207031 186.59375 C 154.425781 185.503906 154.695312 184.425781 155.019531 183.363281 C 155.339844 182.300781 155.714844 181.253906 156.140625 180.226562 C 156.566406 179.199219 157.039062 178.195312 157.5625 177.214844 C 158.085938 176.234375 158.65625 175.28125 159.273438 174.359375 C 159.890625 173.433594 160.554688 172.542969 161.257812 171.683594 C 161.964844 170.824219 162.707031 170 163.496094 169.214844 C 164.28125 168.425781 165.101562 167.683594 165.960938 166.976562 C 166.820312 166.269531 167.710938 165.609375 168.636719 164.992188 C 169.558594 164.375 170.511719 163.804688 171.492188 163.28125 C 172.472656 162.753906 173.476562 162.28125 174.5 161.855469 C 175.527344 161.429688 176.574219 161.054688 177.636719 160.734375 C 178.699219 160.410156 179.777344 160.140625 180.867188 159.921875 C 181.957031 159.707031 183.054688 159.542969 184.160156 159.433594 C 185.265625 159.324219 186.375 159.269531 187.484375 159.269531 C 188.597656 159.269531 189.707031 159.324219 190.8125 159.433594 C 191.917969 159.542969 193.015625 159.707031 194.105469 159.921875 C 195.195312 160.140625 196.273438 160.410156 197.335938 160.734375 C 198.398438 161.054688 199.445312 161.429688 200.46875 161.855469 C 201.496094 162.28125 202.5 162.753906 203.480469 163.28125 C 204.460938 163.804688 205.410156 164.375 206.335938 164.992188 C 207.261719 165.609375 208.152344 166.269531 209.011719 166.976562 C 209.871094 167.683594 210.691406 168.425781 211.476562 169.214844 C 212.261719 170 213.007812 170.824219 213.714844 171.683594 C 214.417969 172.542969 215.078125 173.433594 215.695312 174.359375 C 216.3125 175.28125 216.886719 176.234375 217.410156 177.214844 C 217.933594 178.195312 218.40625 179.199219 218.832031 180.226562 C 219.257812 181.253906 219.632812 182.300781 219.953125 183.363281 C 220.277344 184.425781 220.546875 185.503906 220.761719 186.59375 C 220.980469 187.683594 221.144531 188.785156 221.25 189.890625 C 221.359375 190.996094 221.414062 192.105469 221.414062 193.21875 Z M 221.414062 193.21875 " fill-opacity="1" fill-rule="nonzero"/><g clip-path="url(#825cef070f)"><path fill="#ffffff" d="M 187.484375 317.683594 C 152.675781 317.683594 140.164062 309.050781 138.855469 308.066406 C 137.429688 307.003906 136.59375 305.324219 136.59375 303.539062 L 136.59375 283.738281 C 136.59375 255.660156 159.425781 232.820312 187.484375 232.820312 C 215.550781 232.820312 238.378906 255.660156 238.378906 283.738281 L 238.378906 303.539062 C 238.378906 305.316406 237.542969 306.996094 236.117188 308.066406 C 234.8125 309.050781 222.296875 317.683594 187.484375 317.683594 Z M 187.484375 317.683594 " fill-opacity="1" fill-rule="nonzero"/></g><g clip-path="url(#9001339978)"><path fill="#ffffff" d="M 146.183594 237.335938 C 140.664062 215.195312 120.667969 198.722656 96.855469 198.722656 C 68.796875 198.722656 45.960938 221.5625 45.960938 249.640625 L 45.960938 269.441406 C 45.960938 271.21875 46.796875 272.898438 48.222656 273.96875 C 49.535156 274.953125 62.042969 283.585938 96.855469 283.585938 C 108.917969 283.585938 118.246094 282.539062 125.417969 281.140625 C 126.136719 263.746094 134.003906 248.199219 146.183594 237.335938 Z M 146.183594 237.335938 " fill-opacity="1" fill-rule="nonzero"/></g><g clip-path="url(#5e431de4f0)"><path fill="#ffffff" d="M 277.8125 198.722656 C 254.078125 198.722656 234.144531 215.082031 228.539062 237.109375 C 240.878906 247.992188 248.851562 263.660156 249.566406 281.203125 C 256.695312 282.566406 265.925781 283.585938 277.8125 283.585938 C 312.617188 283.585938 325.132812 274.953125 326.441406 273.96875 C 327.867188 272.90625 328.703125 271.222656 328.703125 269.441406 L 328.703125 249.640625 C 328.703125 221.5625 305.875 198.722656 277.8125 198.722656 Z M 277.8125 198.722656 " fill-opacity="1" fill-rule="nonzero"/></g><path fill="#ffffff" d="M 311.894531 159.269531 C 311.894531 160.382812 311.839844 161.492188 311.730469 162.597656 C 311.621094 163.703125 311.457031 164.804688 311.242188 165.894531 C 311.023438 166.984375 310.753906 168.0625 310.433594 169.125 C 310.109375 170.1875 309.734375 171.234375 309.308594 172.261719 C 308.886719 173.289062 308.410156 174.292969 307.886719 175.273438 C 307.363281 176.253906 306.792969 177.207031 306.175781 178.128906 C 305.558594 179.054688 304.894531 179.945312 304.191406 180.804688 C 303.488281 181.664062 302.742188 182.488281 301.957031 183.273438 C 301.167969 184.0625 300.347656 184.804688 299.488281 185.511719 C 298.628906 186.21875 297.738281 186.878906 296.8125 187.496094 C 295.890625 188.113281 294.9375 188.683594 293.957031 189.207031 C 292.976562 189.734375 291.972656 190.207031 290.949219 190.632812 C 289.921875 191.058594 288.875 191.433594 287.8125 191.753906 C 286.75 192.078125 285.671875 192.347656 284.582031 192.566406 C 283.492188 192.78125 282.394531 192.945312 281.289062 193.054688 C 280.183594 193.164062 279.074219 193.21875 277.964844 193.21875 C 276.851562 193.21875 275.742188 193.164062 274.636719 193.054688 C 273.53125 192.945312 272.433594 192.78125 271.34375 192.566406 C 270.253906 192.347656 269.179688 192.078125 268.113281 191.753906 C 267.050781 191.433594 266.007812 191.058594 264.980469 190.632812 C 263.953125 190.207031 262.949219 189.734375 261.96875 189.207031 C 260.988281 188.683594 260.039062 188.113281 259.113281 187.496094 C 258.191406 186.878906 257.296875 186.21875 256.4375 185.511719 C 255.582031 184.804688 254.757812 184.0625 253.972656 183.273438 C 253.1875 182.488281 252.441406 181.664062 251.734375 180.804688 C 251.03125 179.945312 250.371094 179.054688 249.753906 178.128906 C 249.136719 177.207031 248.566406 176.253906 248.039062 175.273438 C 247.515625 174.292969 247.042969 173.289062 246.617188 172.261719 C 246.191406 171.234375 245.816406 170.1875 245.496094 169.125 C 245.171875 168.0625 244.902344 166.984375 244.6875 165.894531 C 244.46875 164.804688 244.308594 163.703125 244.199219 162.597656 C 244.089844 161.492188 244.035156 160.382812 244.035156 159.269531 C 244.035156 158.160156 244.089844 157.050781 244.199219 155.945312 C 244.308594 154.835938 244.46875 153.738281 244.6875 152.648438 C 244.902344 151.558594 245.171875 150.480469 245.496094 149.417969 C 245.816406 148.351562 246.191406 147.308594 246.617188 146.28125 C 247.042969 145.253906 247.515625 144.25 248.039062 143.269531 C 248.566406 142.289062 249.136719 141.335938 249.753906 140.410156 C 250.371094 139.488281 251.03125 138.597656 251.734375 137.738281 C 252.441406 136.878906 253.1875 136.054688 253.972656 135.269531 C 254.757812 134.480469 255.582031 133.734375 256.4375 133.03125 C 257.296875 132.324219 258.191406 131.664062 259.113281 131.046875 C 260.039062 130.429688 260.988281 129.859375 261.96875 129.332031 C 262.949219 128.808594 263.953125 128.335938 264.980469 127.910156 C 266.007812 127.484375 267.050781 127.109375 268.113281 126.789062 C 269.179688 126.464844 270.253906 126.195312 271.34375 125.976562 C 272.433594 125.761719 273.53125 125.597656 274.636719 125.488281 C 275.742188 125.378906 276.851562 125.324219 277.964844 125.324219 C 279.074219 125.324219 280.183594 125.378906 281.289062 125.488281 C 282.394531 125.597656 283.492188 125.761719 284.582031 125.976562 C 285.671875 126.195312 286.75 126.464844 287.8125 126.789062 C 288.875 127.109375 289.921875 127.484375 290.949219 127.910156 C 291.972656 128.335938 292.976562 128.808594 293.957031 129.332031 C 294.9375 129.859375 295.890625 130.429688 296.8125 131.046875 C 297.738281 131.664062 298.628906 132.324219 299.488281 133.03125 C 300.347656 133.734375 301.167969 134.480469 301.957031 135.269531 C 302.742188 136.054688 303.488281 136.878906 304.191406 137.738281 C 304.894531 138.597656 305.558594 139.488281 306.175781 140.410156 C 306.792969 141.335938 307.363281 142.289062 307.886719 143.269531 C 308.410156 144.25 308.886719 145.253906 309.308594 146.28125 C 309.734375 147.308594 310.109375 148.351562 310.433594 149.417969 C 310.753906 150.480469 311.023438 151.558594 311.242188 152.648438 C 311.457031 153.738281 311.621094 154.835938 311.730469 155.945312 C 311.839844 157.050781 311.894531 158.160156 311.894531 159.269531 Z M 311.894531 159.269531 " fill-opacity="1" fill-rule="nonzero"/><path fill="#ffffff" d="M 130.9375 159.269531 C 130.9375 160.382812 130.882812 161.492188 130.773438 162.597656 C 130.664062 163.703125 130.503906 164.804688 130.285156 165.894531 C 130.070312 166.984375 129.796875 168.0625 129.476562 169.125 C 129.152344 170.1875 128.78125 171.234375 128.355469 172.261719 C 127.929688 173.289062 127.453125 174.292969 126.929688 175.273438 C 126.40625 176.253906 125.835938 177.207031 125.21875 178.128906 C 124.601562 179.054688 123.941406 179.945312 123.234375 180.804688 C 122.53125 181.664062 121.785156 182.488281 121 183.273438 C 120.214844 184.0625 119.390625 184.804688 118.53125 185.511719 C 117.671875 186.21875 116.78125 186.878906 115.859375 187.496094 C 114.933594 188.113281 113.980469 188.683594 113.003906 189.207031 C 112.023438 189.734375 111.019531 190.207031 109.992188 190.632812 C 108.964844 191.058594 107.921875 191.433594 106.855469 191.753906 C 105.792969 192.078125 104.71875 192.347656 103.628906 192.566406 C 102.539062 192.78125 101.441406 192.945312 100.332031 193.054688 C 99.226562 193.164062 98.121094 193.21875 97.007812 193.21875 C 95.898438 193.21875 94.789062 193.164062 93.683594 193.054688 C 92.578125 192.945312 91.480469 192.78125 90.390625 192.566406 C 89.300781 192.347656 88.222656 192.078125 87.160156 191.753906 C 86.09375 191.433594 85.050781 191.058594 84.023438 190.632812 C 82.996094 190.207031 81.992188 189.734375 81.015625 189.207031 C 80.035156 188.683594 79.082031 188.113281 78.15625 187.496094 C 77.234375 186.878906 76.34375 186.21875 75.484375 185.511719 C 74.625 184.804688 73.800781 184.0625 73.015625 183.273438 C 72.230469 182.488281 71.484375 181.664062 70.78125 180.804688 C 70.074219 179.945312 69.414062 179.054688 68.796875 178.128906 C 68.179688 177.207031 67.609375 176.253906 67.085938 175.273438 C 66.5625 174.292969 66.085938 173.289062 65.660156 172.261719 C 65.234375 171.234375 64.863281 170.1875 64.539062 169.125 C 64.21875 168.0625 63.949219 166.984375 63.730469 165.894531 C 63.515625 164.804688 63.351562 163.703125 63.242188 162.597656 C 63.132812 161.492188 63.078125 160.382812 63.078125 159.269531 C 63.078125 158.160156 63.132812 157.050781 63.242188 155.945312 C 63.351562 154.835938 63.515625 153.738281 63.730469 152.648438 C 63.949219 151.558594 64.21875 150.480469 64.539062 149.417969 C 64.863281 148.351562 65.234375 147.308594 65.660156 146.28125 C 66.085938 145.253906 66.5625 144.25 67.085938 143.269531 C 67.609375 142.289062 68.179688 141.335938 68.796875 140.410156 C 69.414062 139.488281 70.074219 138.597656 70.78125 137.738281 C 71.484375 136.878906 72.230469 136.054688 73.015625 135.269531 C 73.800781 134.480469 74.625 133.734375 75.484375 133.03125 C 76.34375 132.324219 77.234375 131.664062 78.15625 131.046875 C 79.082031 130.429688 80.035156 129.859375 81.015625 129.332031 C 81.992188 128.808594 82.996094 128.335938 84.023438 127.910156 C 85.050781 127.484375 86.09375 127.109375 87.160156 126.789062 C 88.222656 126.464844 89.300781 126.195312 90.390625 125.976562 C 91.480469 125.761719 92.578125 125.597656 93.683594 125.488281 C 94.789062 125.378906 95.898438 125.324219 97.007812 125.324219 C 98.121094 125.324219 99.226562 125.378906 100.332031 125.488281 C 101.441406 125.597656 102.539062 125.761719 103.628906 125.976562 C 104.71875 126.195312 105.792969 126.464844 106.855469 126.789062 C 107.921875 127.109375 108.964844 127.484375 109.992188 127.910156 C 111.019531 128.335938 112.023438 128.808594 113.003906 129.332031 C 113.980469 129.859375 114.933594 130.429688 115.859375 131.046875 C 116.78125 131.664062 117.671875 132.324219 118.53125 133.03125 C 119.390625 133.734375 120.214844 134.480469 121 135.269531 C 121.785156 136.054688 122.53125 136.878906 123.234375 137.738281 C 123.941406 138.597656 124.601562 139.488281 125.21875 140.410156 C 125.835938 141.335938 126.40625 142.289062 126.929688 143.269531 C 127.453125 144.25 127.929688 145.253906 128.355469 146.28125 C 128.78125 147.308594 129.152344 148.351562 129.476562 149.417969 C 129.796875 150.480469 130.070312 151.558594 130.285156 152.648438 C 130.503906 153.738281 130.664062 154.835938 130.773438 155.945312 C 130.882812 157.050781 130.9375 158.160156 130.9375 159.269531 Z M 130.9375 159.269531 " fill-opacity="1" fill-rule="nonzero"/><path fill="#ffffff" d="M 232.726562 193.21875 C 232.726562 199.558594 231.40625 205.597656 229.042969 211.074219 C 234.558594 204.085938 241.519531 198.394531 249.402344 194.324219 C 239.234375 186.019531 232.730469 173.394531 232.730469 159.269531 C 232.730469 145.066406 239.320312 132.386719 249.582031 124.082031 C 244.175781 121.195312 238.074219 119.515625 231.441406 119.515625 C 213.125 119.515625 198 131.644531 193.382812 148.386719 C 215.539062 151.292969 232.726562 170.265625 232.726562 193.21875 Z M 232.726562 193.21875 " fill-opacity="1" fill-rule="nonzero"/><path fill="#ffffff" d="M 142.246094 159.269531 C 142.246094 173.445312 135.6875 186.109375 125.457031 194.417969 C 133.691406 198.695312 140.882812 204.765625 146.484375 212.214844 C 143.789062 206.433594 142.246094 200.007812 142.246094 193.21875 C 142.246094 170.738281 158.726562 152.089844 180.214844 148.59375 C 175.671875 131.746094 160.488281 119.515625 142.09375 119.515625 C 135.804688 119.515625 129.976562 121.007812 124.777344 123.621094 C 135.386719 131.910156 142.246094 144.792969 142.246094 159.269531 Z M 142.246094 159.269531 " fill-opacity="1" fill-rule="nonzero"/></svg>