<svg xmlns="http://www.w3.org/2000/svg" xmlns:xlink="http://www.w3.org/1999/xlink" width="500" zoomAndPan="magnify" viewBox="0 0 375 374.999991" height="500" preserveAspectRatio="xMidYMid meet" version="1.0"><defs><clipPath id="c746922c35"><path d="M 5.441406 5.441406 L 369.191406 5.441406 L 369.191406 369.191406 L 5.441406 369.191406 Z M 5.441406 5.441406 " clip-rule="nonzero"/></clipPath><clipPath id="e8301f6792"><path d="M 51.039062 88.183594 L 324.039062 88.183594 L 324.039062 286.933594 L 51.039062 286.933594 Z M 51.039062 88.183594 " clip-rule="nonzero"/></clipPath></defs><rect x="-37.5" width="450" fill="#ffffff" y="-37.499999" height="449.999989" fill-opacity="1"/><rect x="-37.5" width="450" fill="#ffffff" y="-37.499999" height="449.999989" fill-opacity="1"/><rect x="-37.5" width="450" fill="#ffffff" y="-37.499999" height="449.999989" fill-opacity="1"/><g clip-path="url(#c746922c35)"><path fill="#008037" d="M 369.191406 187.316406 C 369.191406 190.292969 369.117188 193.269531 368.972656 196.242188 C 368.828125 199.214844 368.609375 202.179688 368.316406 205.144531 C 368.023438 208.105469 367.660156 211.058594 367.222656 214.003906 C 366.785156 216.949219 366.277344 219.878906 365.695312 222.796875 C 365.117188 225.71875 364.464844 228.621094 363.742188 231.507812 C 363.019531 234.394531 362.222656 237.265625 361.359375 240.113281 C 360.496094 242.960938 359.5625 245.785156 358.558594 248.589844 C 357.558594 251.390625 356.484375 254.167969 355.347656 256.917969 C 354.207031 259.667969 353.003906 262.386719 351.730469 265.078125 C 350.457031 267.769531 349.117188 270.425781 347.714844 273.050781 C 346.3125 275.675781 344.847656 278.265625 343.316406 280.820312 C 341.785156 283.371094 340.195312 285.886719 338.539062 288.359375 C 336.886719 290.835938 335.171875 293.269531 333.398438 295.660156 C 331.625 298.050781 329.796875 300.394531 327.90625 302.695312 C 326.019531 304.996094 324.074219 307.25 322.078125 309.457031 C 320.078125 311.660156 318.027344 313.816406 315.921875 315.921875 C 313.816406 318.027344 311.660156 320.078125 309.457031 322.078125 C 307.25 324.074219 304.996094 326.019531 302.695312 327.90625 C 300.394531 329.796875 298.050781 331.625 295.660156 333.398438 C 293.269531 335.171875 290.835938 336.886719 288.359375 338.539062 C 285.886719 340.195312 283.371094 341.785156 280.820312 343.316406 C 278.265625 344.847656 275.675781 346.3125 273.050781 347.714844 C 270.425781 349.117188 267.769531 350.457031 265.078125 351.730469 C 262.386719 353.003906 259.667969 354.207031 256.917969 355.347656 C 254.167969 356.484375 251.390625 357.558594 248.589844 358.558594 C 245.785156 359.5625 242.960938 360.496094 240.113281 361.359375 C 237.265625 362.222656 234.394531 363.019531 231.507812 363.742188 C 228.621094 364.464844 225.71875 365.117188 222.796875 365.695312 C 219.878906 366.277344 216.949219 366.785156 214.003906 367.222656 C 211.058594 367.660156 208.105469 368.023438 205.144531 368.316406 C 202.179688 368.609375 199.214844 368.828125 196.242188 368.972656 C 193.269531 369.117188 190.292969 369.191406 187.316406 369.191406 C 184.339844 369.191406 181.367188 369.117188 178.390625 368.972656 C 175.417969 368.828125 172.453125 368.609375 169.488281 368.316406 C 166.527344 368.023438 163.574219 367.660156 160.628906 367.222656 C 157.6875 366.785156 154.753906 366.277344 151.835938 365.695312 C 148.914062 365.117188 146.011719 364.464844 143.125 363.742188 C 140.238281 363.019531 137.371094 362.222656 134.519531 361.359375 C 131.671875 360.496094 128.847656 359.5625 126.042969 358.558594 C 123.242188 357.558594 120.464844 356.484375 117.714844 355.347656 C 114.964844 354.207031 112.246094 353.003906 109.554688 351.730469 C 106.863281 350.457031 104.207031 349.117188 101.582031 347.714844 C 98.957031 346.3125 96.367188 344.847656 93.8125 343.316406 C 91.261719 341.785156 88.746094 340.195312 86.273438 338.539062 C 83.796875 336.886719 81.363281 335.171875 78.972656 333.398438 C 76.582031 331.625 74.238281 329.796875 71.9375 327.90625 C 69.636719 326.019531 67.382812 324.074219 65.175781 322.078125 C 62.972656 320.078125 60.816406 318.027344 58.710938 315.921875 C 56.605469 313.816406 54.554688 311.660156 52.554688 309.457031 C 50.558594 307.25 48.613281 304.996094 46.726562 302.695312 C 44.835938 300.394531 43.007812 298.050781 41.234375 295.660156 C 39.460938 293.269531 37.746094 290.835938 36.09375 288.359375 C 34.4375 285.886719 32.847656 283.371094 31.316406 280.820312 C 29.785156 278.265625 28.320312 275.675781 26.917969 273.050781 C 25.515625 270.425781 24.175781 267.769531 22.902344 265.078125 C 21.632812 262.386719 20.425781 259.667969 19.285156 256.917969 C 18.148438 254.167969 17.074219 251.390625 16.074219 248.589844 C 15.070312 245.785156 14.136719 242.960938 13.273438 240.113281 C 12.410156 237.265625 11.617188 234.394531 10.890625 231.507812 C 10.167969 228.621094 9.515625 225.71875 8.9375 222.796875 C 8.355469 219.878906 7.847656 216.949219 7.410156 214.003906 C 6.972656 211.058594 6.609375 208.105469 6.316406 205.144531 C 6.027344 202.179688 5.808594 199.214844 5.660156 196.242188 C 5.515625 193.269531 5.441406 190.292969 5.441406 187.316406 C 5.441406 184.339844 5.515625 181.367188 5.660156 178.390625 C 5.808594 175.417969 6.027344 172.453125 6.316406 169.488281 C 6.609375 166.527344 6.972656 163.574219 7.410156 160.628906 C 7.847656 157.6875 8.355469 154.753906 8.9375 151.835938 C 9.515625 148.914062 10.167969 146.011719 10.890625 143.125 C 11.617188 140.238281 12.410156 137.371094 13.273438 134.519531 C 14.136719 131.671875 15.070312 128.847656 16.074219 126.042969 C 17.074219 123.242188 18.148438 120.464844 19.285156 117.714844 C 20.425781 114.964844 21.632812 112.246094 22.902344 109.554688 C 24.175781 106.863281 25.515625 104.207031 26.917969 101.582031 C 28.320312 98.957031 29.785156 96.367188 31.316406 93.8125 C 32.847656 91.261719 34.4375 88.746094 36.09375 86.273438 C 37.746094 83.796875 39.460938 81.363281 41.234375 78.972656 C 43.007812 76.582031 44.835938 74.238281 46.726562 71.9375 C 48.613281 69.636719 50.558594 67.382812 52.554688 65.175781 C 54.554688 62.972656 56.605469 60.816406 58.710938 58.710938 C 60.816406 56.605469 62.972656 54.554688 65.175781 52.554688 C 67.382812 50.558594 69.636719 48.613281 71.9375 46.726562 C 74.238281 44.835938 76.582031 43.007812 78.972656 41.234375 C 81.363281 39.460938 83.796875 37.746094 86.273438 36.09375 C 88.746094 34.4375 91.261719 32.847656 93.8125 31.316406 C 96.367188 29.785156 98.957031 28.320312 101.582031 26.917969 C 104.207031 25.515625 106.863281 24.175781 109.554688 22.902344 C 112.246094 21.632812 114.964844 20.425781 117.714844 19.285156 C 120.464844 18.148438 123.242188 17.074219 126.042969 16.074219 C 128.847656 15.070312 131.671875 14.136719 134.519531 13.273438 C 137.371094 12.410156 140.238281 11.617188 143.125 10.890625 C 146.011719 10.167969 148.914062 9.515625 151.835938 8.9375 C 154.753906 8.355469 157.6875 7.847656 160.628906 7.410156 C 163.574219 6.972656 166.527344 6.609375 169.488281 6.316406 C 172.453125 6.027344 175.417969 5.808594 178.390625 5.660156 C 181.367188 5.515625 184.339844 5.441406 187.316406 5.441406 C 190.292969 5.441406 193.269531 5.515625 196.242188 5.660156 C 199.214844 5.808594 202.179688 6.027344 205.144531 6.316406 C 208.105469 6.609375 211.058594 6.972656 214.003906 7.410156 C 216.949219 7.847656 219.878906 8.355469 222.796875 8.9375 C 225.71875 9.515625 228.621094 10.167969 231.507812 10.890625 C 234.394531 11.617188 237.265625 12.410156 240.113281 13.273438 C 242.960938 14.136719 245.785156 15.070312 248.589844 16.074219 C 251.390625 17.074219 254.167969 18.148438 256.917969 19.285156 C 259.667969 20.425781 262.386719 21.632812 265.078125 22.902344 C 267.769531 24.175781 270.425781 25.515625 273.050781 26.917969 C 275.675781 28.320312 278.265625 29.785156 280.820312 31.316406 C 283.371094 32.847656 285.886719 34.4375 288.359375 36.09375 C 290.835938 37.746094 293.269531 39.460938 295.660156 41.234375 C 298.050781 43.007812 300.394531 44.835938 302.695312 46.726562 C 304.996094 48.613281 307.25 50.558594 309.457031 52.554688 C 311.660156 54.554688 313.816406 56.605469 315.921875 58.710938 C 318.027344 60.816406 320.078125 62.972656 322.078125 65.175781 C 324.074219 67.382812 326.019531 69.636719 327.90625 71.9375 C 329.796875 74.238281 331.625 76.582031 333.398438 78.972656 C 335.171875 81.363281 336.886719 83.796875 338.539062 86.273438 C 340.195312 88.746094 341.785156 91.261719 343.316406 93.8125 C 344.847656 96.367188 346.3125 98.957031 347.714844 101.582031 C 349.117188 104.207031 350.457031 106.863281 351.730469 109.554688 C 353.003906 112.246094 354.207031 114.964844 355.347656 117.714844 C 356.484375 120.464844 357.558594 123.242188 358.558594 126.042969 C 359.5625 128.847656 360.496094 131.671875 361.359375 134.519531 C 362.222656 137.371094 363.019531 140.238281 363.742188 143.125 C 364.464844 146.011719 365.117188 148.914062 365.695312 151.835938 C 366.277344 154.753906 366.785156 157.6875 367.222656 160.628906 C 367.660156 163.574219 368.023438 166.527344 368.316406 169.488281 C 368.609375 172.453125 368.828125 175.417969 368.972656 178.390625 C 369.117188 181.367188 369.191406 184.339844 369.191406 187.316406 Z M 369.191406 187.316406 " fill-opacity="1" fill-rule="nonzero"/></g><g clip-path="url(#e8301f6792)"><path fill="#ffffff" d="M 315.210938 266.054688 C 315.210938 269.949219 311.996094 273.117188 307.867188 273.125 L 187.527344 278.105469 L 67.007812 273.117188 C 63.058594 273.117188 59.84375 269.949219 59.84375 266.054688 L 59.84375 118.085938 C 59.84375 114.175781 63.058594 111 67.007812 111 L 72.265625 111 L 72.265625 260.894531 C 72.578125 263.996094 75.019531 265.105469 76.898438 265.292969 C 77.289062 265.332031 117.167969 263.261719 148.132812 263.140625 C 173.425781 263.140625 186.949219 268.441406 187.515625 268.441406 C 188.105469 268.441406 201.621094 263.140625 227.71875 263.140625 C 257.878906 263.261719 297.753906 265.300781 298.144531 265.292969 C 301.078125 265.257812 302.6875 263.097656 302.777344 260.894531 L 302.777344 110.996094 L 308.050781 110.996094 C 311.996094 110.996094 315.214844 114.175781 315.214844 118.085938 Z M 175.832031 256.566406 C 169.039062 255.378906 159.621094 254.332031 147.292969 254.332031 C 130.4375 254.398438 110.726562 255.050781 96.339844 255.621094 C 110.5 251.304688 130.574219 246.28125 147.511719 246.203125 C 160.613281 246.203125 169.890625 251.53125 175.832031 256.566406 Z M 81.078125 113.75 C 90.730469 109.867188 124.40625 97.011719 147.246094 97.011719 C 169.503906 97.257812 180.210938 107.011719 183.125 110.207031 L 183.125 251.199219 C 176.039062 244.753906 164.230469 237.394531 147.28125 237.394531 C 122.996094 237.5 93.5625 246.910156 81.078125 251.324219 Z M 278.75 255.625 C 264.253906 255.050781 244.277344 254.394531 226.921875 254.332031 C 215.078125 254.332031 205.945312 255.355469 199.285156 256.527344 C 205.25 251.503906 214.5625 246.203125 227.738281 246.203125 C 244.574219 246.277344 264.605469 251.308594 278.75 255.625 Z M 191.929688 110.210938 C 194.878906 106.988281 205.664062 97.257812 228.402344 97.007812 C 250.722656 97.007812 284.324219 109.863281 293.972656 113.75 L 293.972656 251.324219 C 281.480469 246.910156 252.011719 237.5 227.535156 237.394531 C 210.738281 237.394531 199 244.742188 191.929688 251.179688 Z M 308.050781 102.191406 L 288.511719 102.191406 C 273.652344 96.6875 247.523438 88.203125 227.714844 88.203125 C 205.722656 88.445312 193.21875 97.015625 187.605469 102.191406 L 187.433594 102.191406 C 181.777344 97.015625 169.132812 88.445312 146.65625 88.199219 C 127.324219 88.199219 101.328125 96.6875 86.519531 102.191406 L 67.007812 102.191406 C 58.203125 102.191406 51.039062 109.320312 51.039062 118.085938 L 51.039062 266.054688 C 51.039062 274.804688 58.203125 281.921875 66.816406 281.921875 C 66.824219 281.921875 187.347656 286.910156 187.347656 286.910156 C 187.40625 286.917969 187.46875 286.917969 187.527344 286.917969 C 187.585938 286.917969 187.644531 286.917969 187.710938 286.910156 L 308.050781 281.925781 C 316.851562 281.925781 324.019531 274.804688 324.019531 266.054688 L 324.019531 118.085938 C 324.019531 109.320312 316.851562 102.191406 308.050781 102.191406 " fill-opacity="1" fill-rule="nonzero"/></g></svg>