<svg xmlns="http://www.w3.org/2000/svg" xmlns:xlink="http://www.w3.org/1999/xlink" width="500" zoomAndPan="magnify" viewBox="0 0 375 374.999991" height="500" preserveAspectRatio="xMidYMid meet" version="1.0"><defs><clipPath id="502aa99b71"><path d="M 67.453125 138 L 100 138 L 100 153 L 67.453125 153 Z M 67.453125 138 " clip-rule="nonzero"/></clipPath><clipPath id="d4ee6ba64e"><path d="M 274 138 L 301.664062 138 L 301.664062 153 L 274 153 Z M 274 138 " clip-rule="nonzero"/></clipPath></defs><rect x="-37.5" width="450" fill="#ffffff" y="-37.499999" height="449.999989" fill-opacity="1"/><rect x="-37.5" width="450" fill="#ffffff" y="-37.499999" height="449.999989" fill-opacity="1"/><rect x="-37.5" width="450" fill="#ffffff" y="-37.499999" height="449.999989" fill-opacity="1"/><path fill="#ffffff" d="M 82.453125 13.152344 C 88.160156 10.917969 94.402344 10.636719 100.457031 10.605469 C 165.617188 10.699219 230.75 10.542969 295.917969 10.667969 C 307.769531 9.878906 318.992188 18.460938 322.363281 29.585938 C 323.785156 36.0625 323.246094 42.757812 323.339844 49.355469 C 323.21875 111.210938 323.371094 173.101562 323.277344 234.949219 C 324.128906 249.53125 310.636719 262.957031 296.011719 262.074219 C 230.847656 262.105469 165.648438 262.136719 100.488281 262.042969 C 92.605469 261.855469 83.8125 262.863281 78.132812 268.957031 C 70.25 276.152344 71.164062 288.160156 72.929688 297.71875 C 76.398438 307.902344 87.308594 312.015625 97.234375 312.710938 C 106.914062 312.742188 106.945312 328.269531 97.582031 329.089844 C 78.726562 329.9375 61.484375 315.855469 55.871094 298.351562 C 51.019531 287.132812 54.484375 274.871094 54.265625 263.152344 C 54.203125 192.90625 54.144531 122.660156 54.265625 52.445312 C 54.210938 35.121094 66.535156 19.246094 82.453125 13.152344 Z M 82.453125 13.152344 " fill-opacity="1" fill-rule="nonzero"/><path fill="#ffffff" d="M 121.609375 286.535156 C 121.609375 277.324219 135.984375 275.972656 137.9375 284.867188 C 138.789062 303.441406 138.191406 322.109375 138.34375 340.714844 C 148.117188 336.410156 157.070312 329.054688 168.199219 328.960938 C 174.316406 334.050781 181.628906 337.320312 188.820312 340.625 C 189.042969 322.078125 188.160156 303.503906 189.132812 284.988281 C 190.585938 275.8125 205.777344 277.351562 205.371094 286.71875 C 205.90625 307.117188 205.402344 327.546875 205.625 347.949219 C 205.59375 353.101562 206.160156 360.453125 199.820312 362.28125 C 183.714844 363.414062 170.25 340.84375 154.171875 351.40625 C 146.671875 354.988281 139.640625 359.640625 131.695312 362.25 C 126.429688 364.203125 120.976562 358.953125 121.578125 353.671875 C 121.421875 331.285156 121.453125 308.878906 121.609375 286.535156 Z M 121.609375 286.535156 " fill-opacity="1" fill-rule="nonzero"/><path fill="#ffffff" d="M 224.476562 315.320312 L 226.242188 313.183594 C 252.566406 311.457031 279.082031 312.617188 305.4375 312.464844 C 315.617188 310.640625 318.519531 326.796875 308.652344 328.746094 C 282.421875 329.433594 256.097656 329.371094 229.839844 328.835938 C 223.25 329.089844 219.9375 319.753906 224.476562 315.320312 Z M 224.476562 315.320312 " fill-opacity="1" fill-rule="nonzero"/><path fill="#004aad" d="M 83.160156 93.714844 C 89.871094 98.476562 96.1875 102.9375 102.785156 107.601562 C 104.546875 108.855469 107.015625 108.460938 108.296875 106.707031 C 109.898438 104.5 111.46875 102.359375 113.101562 100.125 C 114.398438 98.34375 113.984375 95.863281 112.191406 94.589844 C 105.570312 89.890625 99.300781 85.445312 92.589844 80.683594 C 90.816406 79.429688 88.347656 79.824219 87.066406 81.578125 C 85.425781 83.824219 83.867188 85.964844 82.242188 88.179688 C 80.957031 89.960938 81.363281 92.453125 83.160156 93.714844 " fill-opacity="1" fill-rule="nonzero"/><path fill="#004aad" d="M 292.382812 88.179688 C 290.714844 85.859375 289.207031 83.753906 287.621094 81.542969 C 286.34375 79.753906 283.847656 79.351562 282.066406 80.640625 C 275.390625 85.445312 269.039062 90.015625 262.511719 94.714844 C 260.722656 96.003906 260.335938 98.492188 261.65625 100.253906 C 263.296875 102.464844 264.816406 104.5 266.402344 106.621094 C 267.691406 108.347656 270.125 108.734375 271.886719 107.488281 C 278.421875 102.875 284.71875 98.429688 291.449219 93.6875 C 293.238281 92.425781 293.652344 89.953125 292.382812 88.179688 " fill-opacity="1" fill-rule="nonzero"/><path fill="#004aad" d="M 78.390625 198.949219 C 79.632812 201.492188 80.761719 203.808594 81.945312 206.226562 C 82.878906 208.148438 85.191406 208.980469 87.136719 208.105469 C 94.386719 204.867188 101.40625 201.730469 109.070312 198.300781 C 111.117188 197.390625 112 194.96875 111.011719 192.96875 C 109.742188 190.390625 108.605469 188.070312 107.429688 185.691406 C 106.488281 183.78125 104.1875 182.949219 102.238281 183.824219 C 94.785156 187.15625 87.660156 190.355469 80.332031 193.628906 C 78.292969 194.546875 77.421875 196.949219 78.390625 198.949219 " fill-opacity="1" fill-rule="nonzero"/><path fill="#004aad" d="M 266.136719 199.660156 C 273.511719 202.625 280.511719 205.4375 287.761719 208.347656 C 289.746094 209.136719 292.003906 208.234375 292.875 206.289062 C 294.03125 203.703125 295.109375 201.316406 296.183594 198.898438 C 297.101562 196.863281 296.121094 194.476562 294.042969 193.636719 C 286.542969 190.628906 279.628906 187.847656 272.003906 184.78125 C 269.9375 183.957031 267.59375 184.972656 266.808594 187.035156 C 265.8125 189.628906 264.875 192.085938 263.914062 194.601562 C 263.148438 196.609375 264.136719 198.863281 266.136719 199.660156 " fill-opacity="1" fill-rule="nonzero"/><g clip-path="url(#502aa99b71)"><path fill="#004aad" d="M 95.269531 138.003906 L 71.421875 138.003906 C 69.226562 138.003906 67.453125 139.765625 67.453125 141.949219 L 67.453125 148.472656 C 67.453125 150.644531 69.226562 152.410156 71.421875 152.410156 L 95.269531 152.410156 C 97.457031 152.410156 99.238281 150.644531 99.238281 148.472656 L 99.238281 141.949219 C 99.238281 139.765625 97.457031 138.003906 95.269531 138.003906 " fill-opacity="1" fill-rule="nonzero"/></g><g clip-path="url(#d4ee6ba64e)"><path fill="#004aad" d="M 278.738281 152.269531 L 303.59375 152.269531 C 305.859375 152.269531 307.667969 150.375 307.550781 148.121094 C 307.4375 145.902344 307.332031 143.832031 307.226562 141.808594 C 307.121094 139.703125 305.382812 138.0625 303.265625 138.0625 L 278.371094 138.0625 C 276.09375 138.0625 274.277344 139.976562 274.410156 142.238281 C 274.542969 144.550781 274.664062 146.621094 274.78125 148.550781 C 274.894531 150.636719 276.632812 152.269531 278.738281 152.269531 " fill-opacity="1" fill-rule="nonzero"/></g><path fill="#004aad" d="M 248.84375 48.933594 C 246.296875 47.636719 243.949219 46.425781 241.566406 45.207031 C 239.636719 44.226562 237.273438 44.964844 236.25 46.867188 C 232.546875 53.757812 229.175781 60.007812 225.78125 66.332031 C 224.75 68.25 225.480469 70.652344 227.421875 71.671875 C 229.855469 72.949219 232.175781 74.179688 234.699219 75.503906 C 236.628906 76.519531 239.035156 75.792969 240.058594 73.871094 C 243.695312 67.078125 247.0625 60.78125 250.535156 54.300781 C 251.570312 52.355469 250.808594 49.945312 248.84375 48.933594 " fill-opacity="1" fill-rule="nonzero"/><path fill="#004aad" d="M 148.765625 66.085938 C 145.210938 59.578125 141.859375 53.449219 138.15625 46.683594 C 137.089844 44.734375 134.621094 44.042969 132.6875 45.148438 C 130.140625 46.601562 127.847656 47.917969 125.570312 49.214844 C 123.703125 50.285156 123.039062 52.644531 124.074219 54.527344 C 127.6875 61.121094 131.109375 67.339844 134.644531 73.792969 C 135.703125 75.714844 138.128906 76.414062 140.050781 75.355469 C 142.582031 73.960938 144.902344 72.6875 147.203125 71.417969 C 149.109375 70.375 149.796875 67.988281 148.765625 66.085938 " fill-opacity="1" fill-rule="nonzero"/><path fill="#004aad" d="M 191.371094 35.476562 L 184.941406 35.476562 C 182.753906 35.476562 180.972656 37.238281 180.972656 39.414062 L 180.972656 60.5 C 180.972656 62.78125 182.902344 64.578125 185.1875 64.4375 C 187.472656 64.296875 189.570312 64.175781 191.617188 64.042969 C 193.707031 63.921875 195.339844 62.191406 195.339844 60.113281 L 195.339844 39.414062 C 195.339844 37.238281 193.566406 35.476562 191.371094 35.476562 " fill-opacity="1" fill-rule="nonzero"/><path fill="#004aad" d="M 187.746094 81.0625 L 187.746094 81.054688 C 187.703125 81.054688 187.65625 81.0625 187.605469 81.0625 C 187.558594 81.0625 187.515625 81.054688 187.472656 81.054688 L 187.472656 81.0625 C 156.4375 80.632812 129.292969 98.152344 121.054688 126.734375 C 114.769531 148.578125 119.679688 168.972656 130.308594 188.585938 C 139.601562 205.753906 148.238281 223.28125 157.8125 241.914062 L 172.425781 241.914062 C 166.113281 226.097656 161.113281 212.171875 155 198.746094 C 150.140625 188.085938 142.804688 178.457031 138.570312 167.59375 C 131.082031 148.355469 132.222656 129.460938 146.886719 113.390625 C 156.96875 102.34375 172.199219 96.78125 187.605469 97.003906 C 203.019531 96.78125 218.25 102.34375 228.332031 113.390625 C 242.996094 129.460938 244.132812 148.355469 236.648438 167.59375 C 232.414062 178.457031 225.078125 188.085938 220.21875 198.746094 C 214.105469 212.171875 209.105469 226.097656 202.78125 241.914062 L 217.402344 241.914062 C 226.980469 223.28125 235.613281 205.753906 244.910156 188.585938 C 255.539062 168.972656 260.449219 148.578125 254.152344 126.734375 C 245.914062 98.152344 218.78125 80.632812 187.746094 81.0625 " fill-opacity="1" fill-rule="nonzero"/><path fill="#004aad" d="M 202.296875 185 C 196.554688 186.253906 190.9375 194.09375 187.605469 198.984375 C 184.28125 194.09375 178.660156 186.253906 172.921875 185 L 172.816406 184.980469 C 170.417969 184.457031 168.40625 186.804688 169.304688 189.078125 L 169.613281 189.839844 C 173.742188 200.222656 175.40625 212.226562 177.03125 223.832031 L 177.214844 225.15625 C 178.027344 230.960938 178.707031 236.433594 179.253906 241.6875 L 185.328125 241.6875 C 184.757812 236.089844 184.042969 230.261719 183.167969 224.0625 L 182.984375 222.738281 C 181.855469 214.617188 180.609375 205.734375 178.414062 197.265625 C 180.539062 199.816406 182.4375 202.632812 183.484375 204.175781 C 185.230469 206.746094 186.027344 207.910156 187.613281 207.839844 C 189.199219 207.882812 190.046875 206.65625 191.730469 204.175781 C 192.78125 202.625 194.675781 199.816406 196.804688 197.265625 C 194.597656 205.734375 193.363281 214.617188 192.226562 222.738281 L 192.050781 224.0625 C 191.175781 230.269531 190.460938 236.089844 189.886719 241.6875 L 195.964844 241.6875 C 196.511719 236.433594 197.191406 230.972656 198.003906 225.15625 L 198.1875 223.832031 C 199.800781 212.226562 201.476562 200.222656 205.605469 189.839844 L 205.914062 189.078125 C 206.8125 186.804688 204.792969 184.457031 202.394531 184.980469 L 202.296875 185 " fill-opacity="1" fill-rule="nonzero"/></svg>