<?xml version="1.0" encoding="utf-8"?>
<!-- Generator: Adobe Illustrator 24.0.2, SVG Export Plug-In . SVG Version: 6.00 Build 0)  -->
<svg version="1.1" id="Layer_1" xmlns="http://www.w3.org/2000/svg" xmlns:xlink="http://www.w3.org/1999/xlink" x="0px" y="0px"
	 viewBox="0 0 447 167" style="enable-background:new 0 0 447 167;" xml:space="preserve">
<style type="text/css">
	.st0{clip-path:url(#SVGID_2_);}
	.st1{fill:#FFFFFF;}
	.st2{fill:#004AAD;}
	.st3{clip-path:url(#SVGID_4_);}
	.st4{clip-path:url(#SVGID_6_);}
	.st5{clip-path:url(#SVGID_8_);}
	.st6{clip-path:url(#SVGID_10_);}
	.st7{clip-path:url(#SVGID_12_);}
</style>
<g>
	<g>
		<defs>
			<rect id="SVGID_1_" x="17.4" y="9.3" width="115" height="135.1"/>
		</defs>
		<clipPath id="SVGID_2_">
			<use xlink:href="#SVGID_1_"  style="overflow:visible;"/>
		</clipPath>
		<g class="st0">
			<path class="st1" d="M30.7,10.7c2.4-0.9,5-1.1,7.6-1.1c27.4,0,54.8,0,82.3,0c5-0.3,9.7,3.3,11.1,8c0.6,2.7,0.4,5.5,0.4,8.3
				c-0.1,26,0,52,0,78c0.4,6.1-5.3,11.8-11.5,11.4c-27.4,0-54.9,0-82.3,0c-3.3-0.1-7,0.3-9.4,2.9c-3.3,3-2.9,8.1-2.2,12.1
				c1.5,4.3,6.1,6,10.2,6.3c4.1,0,4.1,6.5,0.1,6.9c-7.9,0.4-15.2-5.6-17.6-12.9c-2-4.7-0.6-9.9-0.7-14.8c0-29.5-0.1-59.1,0-88.6
				C18.8,19.9,24,13.3,30.7,10.7z"/>
		</g>
	</g>
	<path class="st1" d="M47.1,125.7c0-3.9,6.1-4.4,6.9-0.7c0.4,7.8,0.1,15.7,0.2,23.5c4.1-1.8,7.9-4.9,12.6-4.9
		c2.6,2.1,5.7,3.5,8.7,4.9c0.1-7.8-0.3-15.6,0.1-23.4c0.6-3.9,7-3.2,6.8,0.7c0.2,8.6,0,17.2,0.1,25.8c0,2.2,0.2,5.3-2.4,6
		c-6.8,0.5-12.4-9-19.2-4.6c-3.2,1.5-6.1,3.5-9.5,4.6c-2.2,0.8-4.5-1.4-4.3-3.6C47.1,144.5,47.1,135.1,47.1,125.7z"/>
	<path class="st1" d="M90.4,137.8l0.7-0.9c11.1-0.7,22.2-0.2,33.3-0.3c4.3-0.8,5.5,6,1.4,6.8c-11,0.3-22.1,0.3-33.2,0
		C89.9,143.6,88.5,139.6,90.4,137.8z"/>
	<path class="st2" d="M30.9,44.6c2.8,2,5.5,3.9,8.3,5.9c0.7,0.5,1.8,0.4,2.3-0.4c0.7-0.9,1.3-1.8,2-2.8c0.5-0.8,0.4-1.8-0.4-2.3
		c-2.8-2-5.4-3.9-8.2-5.9c-0.7-0.5-1.8-0.4-2.3,0.4c-0.7,0.9-1.3,1.8-2,2.8C30,43,30.2,44.1,30.9,44.6"/>
	<path class="st2" d="M118.9,42.3c-0.7-1-1.3-1.9-2-2.8c-0.5-0.8-1.6-0.9-2.3-0.4c-2.8,2-5.5,4-8.2,5.9c-0.8,0.5-0.9,1.6-0.4,2.3
		c0.7,0.9,1.3,1.8,2,2.7c0.5,0.7,1.6,0.9,2.3,0.4c2.7-1.9,5.4-3.8,8.2-5.8C119.2,44.1,119.4,43,118.9,42.3"/>
	<path class="st2" d="M28.9,89c0.5,1.1,1,2.1,1.5,3.1c0.4,0.8,1.4,1.2,2.2,0.8c3-1.4,6-2.7,9.2-4.1c0.9-0.4,1.2-1.4,0.8-2.3
		c-0.5-1.1-1-2.1-1.5-3.1c-0.4-0.8-1.4-1.2-2.2-0.8c-3.1,1.4-6.1,2.8-9.2,4.1C28.9,87.2,28.5,88.2,28.9,89"/>
	<path class="st2" d="M107.9,89.3c3.1,1.3,6,2.4,9.1,3.7c0.8,0.3,1.8-0.1,2.2-0.9c0.5-1.1,0.9-2.1,1.4-3.1c0.4-0.9,0-1.9-0.9-2.2
		c-3.2-1.3-6.1-2.4-9.3-3.7c-0.9-0.3-1.9,0.1-2.2,0.9c-0.4,1.1-0.8,2.1-1.2,3.2C106.6,88,107,89,107.9,89.3"/>
	<g>
		<defs>
			<rect id="SVGID_3_" x="24.3" y="63.1" width="14.3" height="6.7"/>
		</defs>
		<clipPath id="SVGID_4_">
			<use xlink:href="#SVGID_3_"  style="overflow:visible;"/>
		</clipPath>
		<g class="st3">
			<path class="st2" d="M36,63.3H26c-0.9,0-1.7,0.7-1.7,1.7v2.8c0,0.9,0.7,1.7,1.7,1.7h10c0.9,0,1.7-0.7,1.7-1.7V65
				C37.7,64,36.9,63.3,36,63.3"/>
		</g>
	</g>
	<g>
		<defs>
			<rect id="SVGID_5_" x="110.7" y="63.1" width="11.6" height="6.7"/>
		</defs>
		<clipPath id="SVGID_6_">
			<use xlink:href="#SVGID_5_"  style="overflow:visible;"/>
		</clipPath>
		<g class="st4">
			<path class="st2" d="M113.2,69.3h10.4c1,0,1.7-0.8,1.7-1.8c-0.1-0.9-0.1-1.8-0.1-2.7c0-0.9-0.8-1.6-1.7-1.6H113
				c-1,0-1.7,0.8-1.7,1.8c0.1,1,0.1,1.8,0.2,2.7C111.5,68.6,112.3,69.3,113.2,69.3"/>
		</g>
	</g>
	<path class="st2" d="M100.6,25.7c-1.1-0.6-2.1-1.1-3.1-1.6c-0.8-0.4-1.8-0.1-2.2,0.7c-1.6,2.9-3,5.5-4.4,8.2
		c-0.4,0.8-0.1,1.8,0.7,2.3c1,0.5,2,1.1,3.1,1.6c0.8,0.4,1.8,0.1,2.3-0.7c1.5-2.9,2.9-5.5,4.4-8.3C101.7,27.2,101.4,26.2,100.6,25.7
		"/>
	<path class="st2" d="M58.5,33c-1.5-2.7-2.9-5.3-4.5-8.2c-0.4-0.8-1.5-1.1-2.3-0.6c-1.1,0.6-2,1.2-3,1.7c-0.8,0.5-1.1,1.4-0.6,2.2
		c1.5,2.8,3,5.4,4.4,8.1c0.4,0.8,1.5,1.1,2.3,0.7c1.1-0.6,2-1.1,3-1.7C58.6,34.8,58.9,33.8,58.5,33"/>
	<g>
		<defs>
			<rect id="SVGID_7_" x="71.9" y="19.8" width="6.7" height="12.6"/>
		</defs>
		<clipPath id="SVGID_8_">
			<use xlink:href="#SVGID_7_"  style="overflow:visible;"/>
		</clipPath>
		<g class="st5">
			<path class="st2" d="M76.4,20h-2.7c-0.9,0-1.7,0.7-1.7,1.7v8.9c0,1,0.8,1.7,1.8,1.7c1-0.1,1.8-0.1,2.7-0.2
				c0.9-0.1,1.6-0.8,1.6-1.7v-8.7C78.1,20.8,77.3,20,76.4,20"/>
		</g>
	</g>
	<g>
		<defs>
			<rect id="SVGID_9_" x="45.3" y="39.1" width="60" height="67.7"/>
		</defs>
		<clipPath id="SVGID_10_">
			<use xlink:href="#SVGID_9_"  style="overflow:visible;"/>
		</clipPath>
		<g class="st6">
			<path class="st2" d="M74.9,39.3L74.9,39.3C74.9,39.3,74.9,39.3,74.9,39.3c-0.1,0-0.1,0-0.1,0v0c-13-0.2-24.5,7.2-27.9,19.3
				c-2.6,9.2-0.6,17.8,3.9,26.1c3.9,7.2,7.5,14.6,11.6,22.5h6.1c-2.7-6.7-4.8-12.5-7.3-18.2c-2-4.5-5.1-8.6-6.9-13.1
				c-3.1-8.1-2.7-16.1,3.5-22.9c4.2-4.7,10.6-7,17.1-6.9c6.5-0.1,12.9,2.3,17.1,6.9c6.2,6.8,6.6,14.7,3.5,22.9
				c-1.8,4.6-4.9,8.6-6.9,13.1c-2.6,5.7-4.7,11.5-7.3,18.2h6.1c4-7.9,7.7-15.3,11.6-22.5c4.5-8.3,6.5-16.9,3.9-26.1
				C99.4,46.5,87.9,39.1,74.9,39.3"/>
		</g>
	</g>
	<g>
		<defs>
			<rect id="SVGID_11_" x="66.6" y="81.8" width="17.3" height="25"/>
		</defs>
		<clipPath id="SVGID_12_">
			<use xlink:href="#SVGID_11_"  style="overflow:visible;"/>
		</clipPath>
		<g class="st7">
			<path class="st2" d="M81,83.1c-2.4,0.5-4.8,3.8-6.2,5.9c-1.4-2.1-3.8-5.4-6.2-5.9l0,0c-1-0.2-1.9,0.8-1.5,1.7l0.1,0.3
				c1.7,4.4,2.4,9.4,3.1,14.3l0.1,0.6c0.3,2.4,0.6,4.8,0.9,7h2.6c-0.2-2.4-0.5-4.8-0.9-7.4L72.9,99c-0.5-3.4-1-7.2-1.9-10.7
				c0.9,1.1,1.7,2.3,2.1,2.9c0.7,1.1,1.1,1.6,1.7,1.5c0.7,0,1-0.5,1.7-1.5c0.4-0.7,1.2-1.8,2.1-2.9c-0.9,3.6-1.4,7.3-1.9,10.7
				l-0.1,0.6c-0.4,2.6-0.7,5.1-0.9,7.4h2.6c0.2-2.2,0.5-4.5,0.9-7l0.1-0.6c0.7-4.9,1.4-10,3.1-14.3l0.1-0.3
				C82.9,83.9,82.1,82.9,81,83.1L81,83.1"/>
		</g>
	</g>
	<g>
		<g transform="translate(131.586104, 172.07054)">
			<g>
				<path class="st1" d="M59.1-116.4H38.9v-31.7H30v39.2h29.1V-116.4z"/>
			</g>
		</g>
	</g>
	<g>
		<g transform="translate(157.819691, 172.07054)">
			<g>
				<path class="st1" d="M41.7-150.9c-2.8,0-4.7,1.8-4.7,4.5c0,2.8,1.9,4.6,4.7,4.6s4.8-1.8,4.8-4.6
					C46.5-149.1,44.5-150.9,41.7-150.9z M46.2-108.9v-30.3h-8.9v30.3H46.2z"/>
			</g>
		</g>
	</g>
	<g>
		<g transform="translate(169.592811, 172.07054)">
			<g>
				<path class="st1" d="M71.3-139.2h-9.7l-6.9,23.4l-7-23.4h-9.9l11.9,30.3h9.8L71.3-139.2z"/>
			</g>
		</g>
	</g>
	<g>
		<g transform="translate(194.546709, 172.07054)">
			<g>
				<path class="st1" d="M66.2-140c-1.8,0-4,0.8-5.5,2.4l-2.3,4.2v-5.8h-8.9v30.3h8.9v-12.7c0-8.6,3-11.4,10.1-11v-7.2
					C67.8-139.9,67.2-140,66.2-140z"/>
			</g>
		</g>
	</g>
	<g>
		<g transform="translate(211.523893, 172.07054)">
			<g>
				<path class="st1" d="M72.8-108.9h8.7c-0.5-3.4-0.6-5.4-0.6-7.7v-9.2c0-1.8-0.1-3.5-0.2-4.9c-0.5-5.4-3.7-9.3-12.7-9.3
					c-7.4,0-13.3,3.9-13.4,10.9h8.5c0.2-3,1.8-4.7,4.6-4.7c2.7,0,4,1.5,4.2,3.3c0.1,1,0.1,1.8,0.1,2.6v0.5h-1.9
					c-10.7,0-16.6,3.9-16.6,10.5c0,5.7,4.6,8.9,9.7,8.9c2.8,0,5.3-0.6,7.5-2l1.4-3.2L72.8-108.9z M66.9-114.2
					c-2.4,0-4.1-1.2-4.1-3.5c0-3.5,3.8-4.9,9.3-4.4v2.2C72.1-116.1,69.5-114.2,66.9-114.2z"/>
			</g>
		</g>
	</g>
	<g>
		<g transform="translate(235.965919, 172.07054)">
			<g>
				<path class="st1" d="M80-140c-1.8,0-4,0.8-5.5,2.4l-2.3,4.2v-5.8h-8.9v30.3h8.9v-12.7c0-8.6,3-11.4,10.1-11v-7.2
					C81.6-139.9,81-140,80-140z"/>
			</g>
		</g>
	</g>
	<g>
		<g transform="translate(252.943103, 172.07054)">
			<g>
				<path class="st1" d="M73.4-150.9c-2.8,0-4.7,1.8-4.7,4.5c0,2.8,1.9,4.6,4.7,4.6s4.8-1.8,4.8-4.6
					C78.2-149.1,76.2-150.9,73.4-150.9z M77.9-108.9v-30.3h-8.9v30.3H77.9z"/>
			</g>
		</g>
	</g>
	<g>
		<g transform="translate(264.716223, 172.07054)">
			<g>
				<path class="st1" d="M90.6-108.9h8.7c-0.5-3.4-0.6-5.4-0.6-7.7v-9.2c0-1.8-0.1-3.5-0.2-4.9c-0.5-5.4-3.7-9.3-12.7-9.3
					c-7.4,0-13.3,3.9-13.4,10.9h8.5c0.2-3,1.8-4.7,4.6-4.7c2.7,0,4,1.5,4.2,3.3c0.1,1,0.1,1.8,0.1,2.6v0.5h-1.9
					c-10.7,0-16.6,3.9-16.6,10.5c0,5.7,4.6,8.9,9.7,8.9c2.8,0,5.3-0.6,7.5-2l1.4-3.2L90.6-108.9z M84.6-114.2
					c-2.4,0-4.1-1.2-4.1-3.5c0-3.5,3.8-4.9,9.3-4.4v2.2C89.8-116.1,87.3-114.2,84.6-114.2z"/>
			</g>
		</g>
	</g>
	<g>
		<g transform="translate(131.586104, 217.820537)">
			<g>
				<path class="st1" d="M47.3-133.6c-10.8,0-19.2,7.4-19.2,20.6c0,12.9,8,20.2,18.7,20.2c10,0,16.7-5.2,17.6-14.1l0.1-0.6h-8.9
					l-0.1,0.6c-0.9,4.7-3.7,7.5-8.3,7.5c-5.3,0-9.7-4.3-9.7-14.1c0-8.7,4-13.5,9.7-13.5c4.7,0,7.5,2.4,8.4,7l0.1,0.6h8.9l-0.1-0.6
					C63.8-127.8,58.2-133.6,47.3-133.6z"/>
			</g>
		</g>
	</g>
	<g>
		<g transform="translate(162.511883, 217.820537)">
			<g>
				<path class="st1" d="M56.5-93.6h8.7c-0.5-3.4-0.6-5.4-0.6-7.7v-9.2c0-1.8-0.1-3.5-0.2-4.9c-0.5-5.4-3.7-9.3-12.7-9.3
					c-7.4,0-13.3,3.9-13.4,10.9h8.5c0.2-3,1.8-4.7,4.6-4.7c2.7,0,4,1.5,4.2,3.3c0.1,1,0.1,1.8,0.1,2.6v0.5h-1.9
					c-10.7,0-16.6,3.9-16.6,10.5c0,5.7,4.6,8.9,9.7,8.9c2.8,0,5.3-0.6,7.5-2l1.4-3.2L56.5-93.6z M50.5-99c-2.4,0-4.1-1.2-4.1-3.5
					c0-3.5,3.8-4.9,9.3-4.4v2.2C55.8-100.9,53.2-99,50.5-99z"/>
			</g>
		</g>
	</g>
	<g>
		<g transform="translate(186.95391, 217.820537)">
			<g>
				<path class="st1" d="M55.6-135.4h-8.9v31.6c0,2.1,0,3.6,0.1,5.1c0.2,4,2.7,5.6,7,5.6c2,0,3.6-0.1,5.3-0.3v-6.1
					c-2.7,0.1-3.3-0.3-3.5-1.7c-0.1-0.8-0.1-1.5-0.1-2.8V-135.4z"/>
			</g>
		</g>
	</g>
	<g>
		<g transform="translate(199.36688, 217.820537)">
			<g>
				<path class="st1" d="M63.2-107.3v-4.9H49.5v4.9H63.2z"/>
			</g>
		</g>
	</g>
	<g>
		<g transform="translate(212.334374, 217.820537)">
			<g>
				<path class="st1" d="M74.2-133.6c-10.8,0-19.2,7.4-19.2,20.6c0,12.9,8,20.2,18.7,20.2c10,0,16.7-5.2,17.6-14.1l0.1-0.6h-8.9
					l-0.1,0.6c-0.9,4.7-3.7,7.5-8.3,7.5c-5.3,0-9.7-4.3-9.7-14.1c0-8.7,4-13.5,9.7-13.5c4.7,0,7.5,2.4,8.4,7l0.1,0.6h8.9l-0.1-0.6
					C90.7-127.8,85.1-133.6,74.2-133.6z"/>
			</g>
		</g>
	</g>
	<g>
		<g transform="translate(243.260154, 217.820537)">
			<g>
				<path class="st1" d="M79.8-124.7c-10.1,0-16,6.5-16,15.9s5.9,16,16,16c10,0,16-6.5,16-16S89.8-124.7,79.8-124.7z M79.8-99
					c-4.3,0-6.8-3.5-6.8-9.8s2.6-9.8,6.8-9.8c4.2,0,6.8,3.5,6.8,9.8S84-99,79.8-99z"/>
			</g>
		</g>
	</g>
	<g>
		<g transform="translate(269.408426, 217.820537)">
			<g>
				<path class="st1" d="M121.1-117.2c-0.7-4.2-4-7.6-10-7.6c-2.7,0-4.7,0.6-6.5,1.8l-3.1,4.1c-1.3-3.4-4.4-5.9-9.4-5.9
					c-2.8,0-4.7,0.6-6.5,1.8l-2.3,3.8v-4.7h-8.9v30.3h8.9v-15.8c0-6.2,1.7-9.2,5.1-9.2c2.9,0,4.4,1.7,4.8,4.7
					c0.2,1.5,0.2,3.2,0.2,4.6v15.6h8.9v-15.8c0-6.2,1.7-9.2,5.1-9.2c2.8,0,4.4,1.7,4.8,4.7c0.2,1.5,0.2,3.2,0.2,4.6v15.6h8.9v-17.9
					C121.4-114,121.4-115.6,121.1-117.2z"/>
			</g>
		</g>
	</g>
	<g>
		<g transform="translate(309.419978, 217.820537)">
			<g>
				<path class="st1" d="M106.8-124.7c-3.1,0-6.1,0.7-7.8,2l-2.3,3.4v-4.6h-8.9v41.5h8.9v-15.1l2,3.2c1.5,1,4.6,1.6,7.1,1.6
					c7.8,0,14.4-5.7,14.4-16.6C120.2-118.4,115.1-124.7,106.8-124.7z M103.6-99c-3.4,0-6.9-2.3-6.9-8.8v-1.4c0-6.9,3.1-9.4,7.2-9.4
					c4.2,0,7.1,3.8,7.1,9.7C111-102.3,108-99,103.6-99z"/>
			</g>
		</g>
	</g>
</g>
</svg>
